<mxfile host="app.diagrams.net" modified="2023-10-24T12:28:14.549Z" agent="Mozilla/5.0 (Windows NT 10.0; Win64; x64) AppleWebKit/537.36 (KHTML, like Gecko) Chrome/118.0.0.0 Safari/537.36" etag="r7YWXGYMpUyYW645nc6i" version="22.0.6" type="device">
  <diagram name="Page-1" id="IgrRp0czrDg9JmsApREj">
    <mxGraphModel dx="2950" dy="2248" grid="1" gridSize="10" guides="1" tooltips="1" connect="1" arrows="1" fold="1" page="1" pageScale="1" pageWidth="850" pageHeight="1100" math="0" shadow="0">
      <root>
        <mxCell id="0" />
        <mxCell id="1" parent="0" />
        <mxCell id="Q0BdBLmXQNtj9m_PoS8G-19" value="" style="endArrow=none;html=1;rounded=0;" parent="1" edge="1">
          <mxGeometry width="50" height="50" relative="1" as="geometry">
            <mxPoint x="271.212824549729" y="58.78717545027098" as="sourcePoint" />
            <mxPoint x="270" y="60" as="targetPoint" />
          </mxGeometry>
        </mxCell>
        <mxCell id="A2X96p4F6_HziaiNXx33-2" value="Корисник" style="whiteSpace=wrap;html=1;align=center;" vertex="1" parent="1">
          <mxGeometry x="120" y="120" width="100" height="40" as="geometry" />
        </mxCell>
        <mxCell id="A2X96p4F6_HziaiNXx33-3" value="" style="line;strokeWidth=1;rotatable=0;dashed=0;labelPosition=right;align=left;verticalAlign=middle;spacingTop=0;spacingLeft=6;points=[];portConstraint=eastwest;" vertex="1" parent="1">
          <mxGeometry x="60" y="135" width="60" height="10" as="geometry" />
        </mxCell>
        <mxCell id="A2X96p4F6_HziaiNXx33-4" value="Име" style="ellipse;whiteSpace=wrap;html=1;align=center;" vertex="1" parent="1">
          <mxGeometry x="-40" y="120" width="100" height="40" as="geometry" />
        </mxCell>
        <mxCell id="A2X96p4F6_HziaiNXx33-5" value="Презиме" style="ellipse;whiteSpace=wrap;html=1;align=center;" vertex="1" parent="1">
          <mxGeometry x="-20" y="50" width="100" height="40" as="geometry" />
        </mxCell>
        <mxCell id="A2X96p4F6_HziaiNXx33-7" style="edgeStyle=orthogonalEdgeStyle;rounded=0;orthogonalLoop=1;jettySize=auto;html=1;endArrow=baseDash;endFill=0;" edge="1" parent="1" source="A2X96p4F6_HziaiNXx33-6" target="A2X96p4F6_HziaiNXx33-2">
          <mxGeometry relative="1" as="geometry" />
        </mxCell>
        <mxCell id="A2X96p4F6_HziaiNXx33-6" value="" style="line;strokeWidth=1;rotatable=0;dashed=0;labelPosition=right;align=left;verticalAlign=middle;spacingTop=0;spacingLeft=6;points=[];portConstraint=eastwest;" vertex="1" parent="1">
          <mxGeometry x="60" y="80" width="60" height="10" as="geometry" />
        </mxCell>
        <mxCell id="A2X96p4F6_HziaiNXx33-10" style="edgeStyle=orthogonalEdgeStyle;rounded=0;orthogonalLoop=1;jettySize=auto;html=1;entryX=0.75;entryY=0;entryDx=0;entryDy=0;endArrow=baseDash;endFill=0;" edge="1" parent="1" source="A2X96p4F6_HziaiNXx33-9" target="A2X96p4F6_HziaiNXx33-2">
          <mxGeometry relative="1" as="geometry">
            <Array as="points">
              <mxPoint x="200" y="120" />
            </Array>
          </mxGeometry>
        </mxCell>
        <mxCell id="A2X96p4F6_HziaiNXx33-9" value="&lt;u&gt;Корисничко име&lt;/u&gt;" style="ellipse;whiteSpace=wrap;html=1;align=center;" vertex="1" parent="1">
          <mxGeometry x="140" y="10" width="100" height="40" as="geometry" />
        </mxCell>
        <mxCell id="A2X96p4F6_HziaiNXx33-13" style="edgeStyle=orthogonalEdgeStyle;rounded=0;orthogonalLoop=1;jettySize=auto;html=1;entryX=1;entryY=0.25;entryDx=0;entryDy=0;endArrow=baseDash;endFill=0;" edge="1" parent="1" source="A2X96p4F6_HziaiNXx33-11" target="A2X96p4F6_HziaiNXx33-2">
          <mxGeometry relative="1" as="geometry" />
        </mxCell>
        <mxCell id="A2X96p4F6_HziaiNXx33-11" value="Датум на раѓање" style="ellipse;whiteSpace=wrap;html=1;align=center;" vertex="1" parent="1">
          <mxGeometry x="300" y="-20" width="100" height="40" as="geometry" />
        </mxCell>
        <mxCell id="A2X96p4F6_HziaiNXx33-20" style="edgeStyle=orthogonalEdgeStyle;rounded=0;orthogonalLoop=1;jettySize=auto;html=1;entryX=0.75;entryY=1;entryDx=0;entryDy=0;endArrow=baseDash;endFill=0;" edge="1" parent="1" source="A2X96p4F6_HziaiNXx33-15" target="A2X96p4F6_HziaiNXx33-2">
          <mxGeometry relative="1" as="geometry">
            <Array as="points">
              <mxPoint x="320" y="125" />
              <mxPoint x="320" y="160" />
            </Array>
          </mxGeometry>
        </mxCell>
        <mxCell id="A2X96p4F6_HziaiNXx33-15" value="Пол" style="ellipse;whiteSpace=wrap;html=1;align=center;" vertex="1" parent="1">
          <mxGeometry x="425" y="130" width="100" height="40" as="geometry" />
        </mxCell>
        <mxCell id="A2X96p4F6_HziaiNXx33-19" style="edgeStyle=orthogonalEdgeStyle;rounded=0;orthogonalLoop=1;jettySize=auto;html=1;endArrow=baseDash;endFill=0;" edge="1" parent="1" source="A2X96p4F6_HziaiNXx33-16" target="A2X96p4F6_HziaiNXx33-2">
          <mxGeometry relative="1" as="geometry" />
        </mxCell>
        <mxCell id="A2X96p4F6_HziaiNXx33-16" value="Датум на регистрација" style="ellipse;whiteSpace=wrap;html=1;align=center;" vertex="1" parent="1">
          <mxGeometry x="390" y="80" width="100" height="40" as="geometry" />
        </mxCell>
        <mxCell id="A2X96p4F6_HziaiNXx33-34" style="edgeStyle=orthogonalEdgeStyle;rounded=0;orthogonalLoop=1;jettySize=auto;html=1;entryX=0;entryY=0.75;entryDx=0;entryDy=0;endArrow=baseDash;endFill=0;" edge="1" parent="1" source="A2X96p4F6_HziaiNXx33-17" target="A2X96p4F6_HziaiNXx33-2">
          <mxGeometry relative="1" as="geometry" />
        </mxCell>
        <mxCell id="A2X96p4F6_HziaiNXx33-17" value="Емаил" style="ellipse;whiteSpace=wrap;html=1;align=center;" vertex="1" parent="1">
          <mxGeometry x="-100" y="170" width="100" height="40" as="geometry" />
        </mxCell>
        <mxCell id="A2X96p4F6_HziaiNXx33-22" value="Листа" style="whiteSpace=wrap;html=1;align=center;" vertex="1" parent="1">
          <mxGeometry x="20" y="470" width="100" height="40" as="geometry" />
        </mxCell>
        <mxCell id="A2X96p4F6_HziaiNXx33-27" value="М" style="resizable=0;html=1;whiteSpace=wrap;align=right;verticalAlign=bottom;" connectable="0" vertex="1" parent="1">
          <mxGeometry x="129.99684509312493" y="220.003574632648" as="geometry">
            <mxPoint x="15" y="-34" as="offset" />
          </mxGeometry>
        </mxCell>
        <mxCell id="A2X96p4F6_HziaiNXx33-28" value="Креира" style="shape=rhombus;perimeter=rhombusPerimeter;whiteSpace=wrap;html=1;align=center;" vertex="1" parent="1">
          <mxGeometry x="-20" y="270" width="120" height="70" as="geometry" />
        </mxCell>
        <mxCell id="A2X96p4F6_HziaiNXx33-35" value="" style="endArrow=none;html=1;rounded=0;entryX=0.184;entryY=1.05;entryDx=0;entryDy=0;entryPerimeter=0;" edge="1" parent="1" target="A2X96p4F6_HziaiNXx33-2">
          <mxGeometry relative="1" as="geometry">
            <mxPoint x="40" y="270" as="sourcePoint" />
            <mxPoint x="80" y="160" as="targetPoint" />
          </mxGeometry>
        </mxCell>
        <mxCell id="A2X96p4F6_HziaiNXx33-36" value="" style="endArrow=none;html=1;rounded=0;entryX=0.372;entryY=0.09;entryDx=0;entryDy=0;entryPerimeter=0;" edge="1" parent="1" target="A2X96p4F6_HziaiNXx33-22">
          <mxGeometry relative="1" as="geometry">
            <mxPoint x="40" y="340" as="sourcePoint" />
            <mxPoint x="-10" y="420" as="targetPoint" />
          </mxGeometry>
        </mxCell>
        <mxCell id="A2X96p4F6_HziaiNXx33-37" value="N" style="resizable=0;html=1;whiteSpace=wrap;align=right;verticalAlign=bottom;" connectable="0" vertex="1" parent="1">
          <mxGeometry x="29.996845093124932" y="500.003574632648" as="geometry">
            <mxPoint x="15" y="-34" as="offset" />
          </mxGeometry>
        </mxCell>
        <mxCell id="A2X96p4F6_HziaiNXx33-38" value="Споделува" style="shape=rhombus;perimeter=rhombusPerimeter;whiteSpace=wrap;html=1;align=center;" vertex="1" parent="1">
          <mxGeometry x="120" y="280" width="120" height="60" as="geometry" />
        </mxCell>
        <mxCell id="A2X96p4F6_HziaiNXx33-41" value="" style="endArrow=none;html=1;rounded=0;entryX=0.183;entryY=0.287;entryDx=0;entryDy=0;entryPerimeter=0;" edge="1" parent="1">
          <mxGeometry relative="1" as="geometry">
            <mxPoint x="178.04000000000002" y="160" as="sourcePoint" />
            <mxPoint x="140.00000000000006" y="297.22" as="targetPoint" />
          </mxGeometry>
        </mxCell>
        <mxCell id="A2X96p4F6_HziaiNXx33-42" value="" style="endArrow=none;html=1;rounded=0;exitX=0.147;exitY=0.753;exitDx=0;exitDy=0;exitPerimeter=0;" edge="1" parent="1" source="A2X96p4F6_HziaiNXx33-38">
          <mxGeometry relative="1" as="geometry">
            <mxPoint x="165" y="320" as="sourcePoint" />
            <mxPoint x="95" y="470" as="targetPoint" />
          </mxGeometry>
        </mxCell>
        <mxCell id="A2X96p4F6_HziaiNXx33-43" value="" style="endArrow=none;html=1;rounded=0;" edge="1" parent="1">
          <mxGeometry relative="1" as="geometry">
            <mxPoint x="194.5" y="160" as="sourcePoint" />
            <mxPoint x="194.5" y="290" as="targetPoint" />
          </mxGeometry>
        </mxCell>
        <mxCell id="A2X96p4F6_HziaiNXx33-44" value="" style="endArrow=none;html=1;rounded=0;entryX=1;entryY=0;entryDx=0;entryDy=0;" edge="1" parent="1" target="A2X96p4F6_HziaiNXx33-22">
          <mxGeometry relative="1" as="geometry">
            <mxPoint x="200" y="330" as="sourcePoint" />
            <mxPoint x="110" y="480" as="targetPoint" />
          </mxGeometry>
        </mxCell>
        <mxCell id="A2X96p4F6_HziaiNXx33-45" value="Споделувач" style="text;html=1;strokeColor=none;fillColor=none;align=center;verticalAlign=middle;whiteSpace=wrap;rounded=0;rotation=-75;" vertex="1" parent="1">
          <mxGeometry x="80" y="290" width="60" height="30" as="geometry" />
        </mxCell>
        <mxCell id="A2X96p4F6_HziaiNXx33-48" value="Примач" style="text;html=1;strokeColor=none;fillColor=none;align=center;verticalAlign=middle;whiteSpace=wrap;rounded=0;rotation=-84;" vertex="1" parent="1">
          <mxGeometry x="147.08" y="255" width="120" height="20" as="geometry" />
        </mxCell>
        <mxCell id="A2X96p4F6_HziaiNXx33-50" value="М" style="resizable=0;html=1;whiteSpace=wrap;align=right;verticalAlign=bottom;" connectable="0" vertex="1" parent="1">
          <mxGeometry x="149.99684509312493" y="220.003574632648" as="geometry">
            <mxPoint x="15" y="-34" as="offset" />
          </mxGeometry>
        </mxCell>
        <mxCell id="A2X96p4F6_HziaiNXx33-51" value="N" style="resizable=0;html=1;whiteSpace=wrap;align=right;verticalAlign=bottom;" connectable="0" vertex="1" parent="1">
          <mxGeometry x="79.99684509312493" y="500.003574632648" as="geometry">
            <mxPoint x="15" y="-34" as="offset" />
          </mxGeometry>
        </mxCell>
        <mxCell id="A2X96p4F6_HziaiNXx33-53" value="М" style="resizable=0;html=1;whiteSpace=wrap;align=right;verticalAlign=bottom;" connectable="0" vertex="1" parent="1">
          <mxGeometry x="199.99684509312496" y="220.003574632648" as="geometry">
            <mxPoint x="15" y="-34" as="offset" />
          </mxGeometry>
        </mxCell>
        <mxCell id="A2X96p4F6_HziaiNXx33-55" value="N" style="resizable=0;html=1;whiteSpace=wrap;align=right;verticalAlign=bottom;" connectable="0" vertex="1" parent="1">
          <mxGeometry x="119.99684509312496" y="510.003574632648" as="geometry">
            <mxPoint x="15" y="-34" as="offset" />
          </mxGeometry>
        </mxCell>
        <mxCell id="A2X96p4F6_HziaiNXx33-58" value="" style="line;strokeWidth=1;rotatable=0;dashed=0;labelPosition=right;align=left;verticalAlign=middle;spacingTop=0;spacingLeft=6;points=[];portConstraint=eastwest;" vertex="1" parent="1">
          <mxGeometry x="200" y="310" width="120" height="40" as="geometry" />
        </mxCell>
        <mxCell id="A2X96p4F6_HziaiNXx33-59" value="Датум на споделување" style="ellipse;whiteSpace=wrap;html=1;align=center;" vertex="1" parent="1">
          <mxGeometry x="295" y="270" width="100" height="40" as="geometry" />
        </mxCell>
        <mxCell id="A2X96p4F6_HziaiNXx33-60" value="Коментар" style="ellipse;whiteSpace=wrap;html=1;align=center;" vertex="1" parent="1">
          <mxGeometry x="310" y="315" width="100" height="40" as="geometry" />
        </mxCell>
        <mxCell id="A2X96p4F6_HziaiNXx33-66" style="edgeStyle=orthogonalEdgeStyle;rounded=0;orthogonalLoop=1;jettySize=auto;html=1;entryX=0.82;entryY=0.353;entryDx=0;entryDy=0;entryPerimeter=0;endArrow=baseDash;endFill=0;" edge="1" parent="1" source="A2X96p4F6_HziaiNXx33-59" target="A2X96p4F6_HziaiNXx33-38">
          <mxGeometry relative="1" as="geometry" />
        </mxCell>
        <mxCell id="A2X96p4F6_HziaiNXx33-68" style="edgeStyle=orthogonalEdgeStyle;rounded=0;orthogonalLoop=1;jettySize=auto;html=1;entryX=0.25;entryY=1;entryDx=0;entryDy=0;endArrow=baseDash;endFill=0;" edge="1" parent="1">
          <mxGeometry relative="1" as="geometry">
            <mxPoint x="-125" y="490" as="sourcePoint" />
            <mxPoint x="20" y="510" as="targetPoint" />
            <Array as="points">
              <mxPoint x="20" y="490" />
            </Array>
          </mxGeometry>
        </mxCell>
        <mxCell id="A2X96p4F6_HziaiNXx33-67" value="&lt;u&gt;Име&lt;/u&gt;" style="ellipse;whiteSpace=wrap;html=1;align=center;" vertex="1" parent="1">
          <mxGeometry x="-200" y="470" width="100" height="40" as="geometry" />
        </mxCell>
        <mxCell id="A2X96p4F6_HziaiNXx33-70" style="edgeStyle=orthogonalEdgeStyle;rounded=0;orthogonalLoop=1;jettySize=auto;html=1;entryX=0.5;entryY=1;entryDx=0;entryDy=0;endArrow=baseDash;endFill=0;" edge="1" parent="1" source="A2X96p4F6_HziaiNXx33-69" target="A2X96p4F6_HziaiNXx33-22">
          <mxGeometry relative="1" as="geometry">
            <Array as="points">
              <mxPoint x="-150" y="520" />
              <mxPoint x="70" y="520" />
            </Array>
          </mxGeometry>
        </mxCell>
        <mxCell id="A2X96p4F6_HziaiNXx33-69" value="Датум на креирање" style="ellipse;whiteSpace=wrap;html=1;align=center;" vertex="1" parent="1">
          <mxGeometry x="-200" y="550" width="100" height="40" as="geometry" />
        </mxCell>
        <mxCell id="A2X96p4F6_HziaiNXx33-83" style="edgeStyle=orthogonalEdgeStyle;rounded=0;orthogonalLoop=1;jettySize=auto;html=1;shape=link;" edge="1" parent="1" source="A2X96p4F6_HziaiNXx33-157">
          <mxGeometry relative="1" as="geometry">
            <mxPoint x="430" y="590" as="targetPoint" />
            <mxPoint x="430" y="510" as="sourcePoint" />
          </mxGeometry>
        </mxCell>
        <mxCell id="A2X96p4F6_HziaiNXx33-75" value="" style="endArrow=none;html=1;rounded=0;entryX=0;entryY=0.5;entryDx=0;entryDy=0;" edge="1" parent="1" source="A2X96p4F6_HziaiNXx33-78">
          <mxGeometry relative="1" as="geometry">
            <mxPoint x="120" y="489.5" as="sourcePoint" />
            <mxPoint x="380" y="490" as="targetPoint" />
          </mxGeometry>
        </mxCell>
        <mxCell id="A2X96p4F6_HziaiNXx33-77" value="N" style="resizable=0;html=1;whiteSpace=wrap;align=right;verticalAlign=bottom;" connectable="0" vertex="1" parent="A2X96p4F6_HziaiNXx33-75">
          <mxGeometry x="1" relative="1" as="geometry" />
        </mxCell>
        <mxCell id="A2X96p4F6_HziaiNXx33-79" value="" style="endArrow=none;html=1;rounded=0;entryX=0;entryY=0.5;entryDx=0;entryDy=0;" edge="1" parent="1" target="A2X96p4F6_HziaiNXx33-78">
          <mxGeometry relative="1" as="geometry">
            <mxPoint x="120" y="489.5" as="sourcePoint" />
            <mxPoint x="380" y="490" as="targetPoint" />
          </mxGeometry>
        </mxCell>
        <mxCell id="A2X96p4F6_HziaiNXx33-80" value="M" style="resizable=0;html=1;whiteSpace=wrap;align=left;verticalAlign=bottom;" connectable="0" vertex="1" parent="A2X96p4F6_HziaiNXx33-79">
          <mxGeometry x="-1" relative="1" as="geometry" />
        </mxCell>
        <mxCell id="A2X96p4F6_HziaiNXx33-78" value="Relationship" style="shape=rhombus;perimeter=rhombusPerimeter;whiteSpace=wrap;html=1;align=center;" vertex="1" parent="1">
          <mxGeometry x="190" y="460" width="120" height="60" as="geometry" />
        </mxCell>
        <mxCell id="A2X96p4F6_HziaiNXx33-87" style="edgeStyle=orthogonalEdgeStyle;rounded=0;orthogonalLoop=1;jettySize=auto;html=1;endArrow=baseDash;endFill=0;" edge="1" parent="1" source="A2X96p4F6_HziaiNXx33-95">
          <mxGeometry relative="1" as="geometry">
            <mxPoint x="480" y="750" as="targetPoint" />
            <Array as="points">
              <mxPoint x="475" y="715" />
              <mxPoint x="481" y="715" />
            </Array>
          </mxGeometry>
        </mxCell>
        <mxCell id="A2X96p4F6_HziaiNXx33-84" value="d" style="ellipse;whiteSpace=wrap;html=1;align=center;" vertex="1" parent="1">
          <mxGeometry x="415" y="590" width="30" height="30" as="geometry" />
        </mxCell>
        <mxCell id="A2X96p4F6_HziaiNXx33-89" value="Град" style="whiteSpace=wrap;html=1;align=center;" vertex="1" parent="1">
          <mxGeometry x="167.07999999999998" y="750" width="100" height="40" as="geometry" />
        </mxCell>
        <mxCell id="A2X96p4F6_HziaiNXx33-101" style="edgeStyle=orthogonalEdgeStyle;rounded=0;orthogonalLoop=1;jettySize=auto;html=1;endArrow=baseDash;endFill=0;" edge="1" parent="1" source="A2X96p4F6_HziaiNXx33-102">
          <mxGeometry relative="1" as="geometry">
            <mxPoint x="495" y="900" as="targetPoint" />
          </mxGeometry>
        </mxCell>
        <mxCell id="A2X96p4F6_HziaiNXx33-90" value="Објект" style="whiteSpace=wrap;html=1;align=center;" vertex="1" parent="1">
          <mxGeometry x="445" y="750" width="100" height="40" as="geometry" />
        </mxCell>
        <mxCell id="A2X96p4F6_HziaiNXx33-91" value="Туристичка агенција" style="whiteSpace=wrap;html=1;align=center;" vertex="1" parent="1">
          <mxGeometry x="640" y="110" width="100" height="40" as="geometry" />
        </mxCell>
        <mxCell id="A2X96p4F6_HziaiNXx33-94" value="" style="edgeStyle=orthogonalEdgeStyle;rounded=0;orthogonalLoop=1;jettySize=auto;html=1;endArrow=baseDash;endFill=0;" edge="1" parent="1" source="A2X96p4F6_HziaiNXx33-84" target="A2X96p4F6_HziaiNXx33-92">
          <mxGeometry relative="1" as="geometry">
            <mxPoint x="380" y="750" as="targetPoint" />
            <mxPoint x="415" y="605" as="sourcePoint" />
          </mxGeometry>
        </mxCell>
        <mxCell id="A2X96p4F6_HziaiNXx33-137" style="edgeStyle=orthogonalEdgeStyle;rounded=0;orthogonalLoop=1;jettySize=auto;html=1;endArrow=baseDash;endFill=0;" edge="1" parent="1" source="A2X96p4F6_HziaiNXx33-92" target="A2X96p4F6_HziaiNXx33-89">
          <mxGeometry relative="1" as="geometry">
            <Array as="points">
              <mxPoint x="290" y="730" />
              <mxPoint x="217" y="730" />
            </Array>
          </mxGeometry>
        </mxCell>
        <mxCell id="A2X96p4F6_HziaiNXx33-92" value="" style="shape=requiredInterface;html=1;verticalLabelPosition=bottom;sketch=0;rotation=90;" vertex="1" parent="1">
          <mxGeometry x="285" y="680" width="10" height="30" as="geometry" />
        </mxCell>
        <mxCell id="A2X96p4F6_HziaiNXx33-96" value="" style="edgeStyle=orthogonalEdgeStyle;rounded=0;orthogonalLoop=1;jettySize=auto;html=1;endArrow=baseDash;endFill=0;" edge="1" parent="1" source="A2X96p4F6_HziaiNXx33-84" target="A2X96p4F6_HziaiNXx33-95">
          <mxGeometry relative="1" as="geometry">
            <mxPoint x="480" y="750" as="targetPoint" />
            <mxPoint x="445" y="605" as="sourcePoint" />
          </mxGeometry>
        </mxCell>
        <mxCell id="A2X96p4F6_HziaiNXx33-95" value="" style="shape=requiredInterface;html=1;verticalLabelPosition=bottom;sketch=0;rotation=90;" vertex="1" parent="1">
          <mxGeometry x="470" y="660" width="10" height="30" as="geometry" />
        </mxCell>
        <mxCell id="A2X96p4F6_HziaiNXx33-103" value="" style="edgeStyle=orthogonalEdgeStyle;rounded=0;orthogonalLoop=1;jettySize=auto;html=1;endArrow=baseDash;endFill=0;" edge="1" parent="1" source="A2X96p4F6_HziaiNXx33-90" target="A2X96p4F6_HziaiNXx33-102">
          <mxGeometry relative="1" as="geometry">
            <mxPoint x="495" y="900" as="targetPoint" />
            <mxPoint x="495" y="790" as="sourcePoint" />
          </mxGeometry>
        </mxCell>
        <mxCell id="A2X96p4F6_HziaiNXx33-104" style="edgeStyle=orthogonalEdgeStyle;rounded=0;orthogonalLoop=1;jettySize=auto;html=1;endArrow=baseDash;endFill=0;exitX=0;exitY=0.5;exitDx=0;exitDy=0;" edge="1" parent="1" source="A2X96p4F6_HziaiNXx33-112">
          <mxGeometry relative="1" as="geometry">
            <mxPoint x="405" y="1020" as="targetPoint" />
            <mxPoint x="445" y="905" as="sourcePoint" />
            <Array as="points">
              <mxPoint x="406" y="905" />
            </Array>
          </mxGeometry>
        </mxCell>
        <mxCell id="A2X96p4F6_HziaiNXx33-106" style="edgeStyle=orthogonalEdgeStyle;rounded=0;orthogonalLoop=1;jettySize=auto;html=1;endArrow=baseDash;endFill=0;" edge="1" parent="1" source="A2X96p4F6_HziaiNXx33-114">
          <mxGeometry relative="1" as="geometry">
            <mxPoint x="495" y="1010" as="targetPoint" />
          </mxGeometry>
        </mxCell>
        <mxCell id="A2X96p4F6_HziaiNXx33-102" value="d" style="ellipse;whiteSpace=wrap;html=1;align=center;" vertex="1" parent="1">
          <mxGeometry x="480" y="890" width="30" height="30" as="geometry" />
        </mxCell>
        <mxCell id="A2X96p4F6_HziaiNXx33-107" value="Музеј" style="whiteSpace=wrap;html=1;align=center;" vertex="1" parent="1">
          <mxGeometry x="345" y="1010" width="100" height="40" as="geometry" />
        </mxCell>
        <mxCell id="A2X96p4F6_HziaiNXx33-108" value="Катедрала" style="whiteSpace=wrap;html=1;align=center;" vertex="1" parent="1">
          <mxGeometry x="450" y="1010" width="100" height="40" as="geometry" />
        </mxCell>
        <mxCell id="A2X96p4F6_HziaiNXx33-111" value="" style="edgeStyle=orthogonalEdgeStyle;rounded=0;orthogonalLoop=1;jettySize=auto;html=1;endArrow=baseDash;endFill=0;" edge="1" parent="1" source="A2X96p4F6_HziaiNXx33-116" target="A2X96p4F6_HziaiNXx33-110">
          <mxGeometry relative="1" as="geometry">
            <mxPoint x="590" y="980" as="targetPoint" />
            <mxPoint x="510" y="905" as="sourcePoint" />
            <Array as="points" />
          </mxGeometry>
        </mxCell>
        <mxCell id="A2X96p4F6_HziaiNXx33-110" value="Ресторан" style="whiteSpace=wrap;html=1;align=center;" vertex="1" parent="1">
          <mxGeometry x="570" y="1010" width="100" height="40" as="geometry" />
        </mxCell>
        <mxCell id="A2X96p4F6_HziaiNXx33-113" value="" style="edgeStyle=orthogonalEdgeStyle;rounded=0;orthogonalLoop=1;jettySize=auto;html=1;endArrow=baseDash;endFill=0;exitX=0;exitY=0.5;exitDx=0;exitDy=0;" edge="1" parent="1" source="A2X96p4F6_HziaiNXx33-102" target="A2X96p4F6_HziaiNXx33-112">
          <mxGeometry relative="1" as="geometry">
            <mxPoint x="405" y="1020" as="targetPoint" />
            <mxPoint x="480" y="905" as="sourcePoint" />
            <Array as="points" />
          </mxGeometry>
        </mxCell>
        <mxCell id="A2X96p4F6_HziaiNXx33-112" value="" style="shape=requiredInterface;html=1;verticalLabelPosition=bottom;sketch=0;rotation=90;" vertex="1" parent="1">
          <mxGeometry x="400" y="950" width="10" height="30" as="geometry" />
        </mxCell>
        <mxCell id="A2X96p4F6_HziaiNXx33-115" value="" style="edgeStyle=orthogonalEdgeStyle;rounded=0;orthogonalLoop=1;jettySize=auto;html=1;endArrow=baseDash;endFill=0;" edge="1" parent="1" source="A2X96p4F6_HziaiNXx33-102" target="A2X96p4F6_HziaiNXx33-114">
          <mxGeometry relative="1" as="geometry">
            <mxPoint x="495" y="1010" as="targetPoint" />
            <mxPoint x="495" y="920" as="sourcePoint" />
          </mxGeometry>
        </mxCell>
        <mxCell id="A2X96p4F6_HziaiNXx33-114" value="" style="shape=requiredInterface;html=1;verticalLabelPosition=bottom;sketch=0;rotation=90;" vertex="1" parent="1">
          <mxGeometry x="490" y="950" width="10" height="30" as="geometry" />
        </mxCell>
        <mxCell id="A2X96p4F6_HziaiNXx33-117" value="" style="edgeStyle=orthogonalEdgeStyle;rounded=0;orthogonalLoop=1;jettySize=auto;html=1;endArrow=baseDash;endFill=0;" edge="1" parent="1" source="A2X96p4F6_HziaiNXx33-102" target="A2X96p4F6_HziaiNXx33-116">
          <mxGeometry relative="1" as="geometry">
            <mxPoint x="620" y="980" as="targetPoint" />
            <mxPoint x="510" y="905" as="sourcePoint" />
            <Array as="points" />
          </mxGeometry>
        </mxCell>
        <mxCell id="A2X96p4F6_HziaiNXx33-116" value="" style="shape=requiredInterface;html=1;verticalLabelPosition=bottom;sketch=0;rotation=90;" vertex="1" parent="1">
          <mxGeometry x="615" y="930" width="10" height="30" as="geometry" />
        </mxCell>
        <mxCell id="A2X96p4F6_HziaiNXx33-130" value="" style="edgeStyle=orthogonalEdgeStyle;rounded=0;orthogonalLoop=1;jettySize=auto;html=1;endArrow=baseDash;endFill=0;" edge="1" parent="1" source="A2X96p4F6_HziaiNXx33-118" target="A2X96p4F6_HziaiNXx33-90">
          <mxGeometry relative="1" as="geometry" />
        </mxCell>
        <mxCell id="A2X96p4F6_HziaiNXx33-136" style="edgeStyle=orthogonalEdgeStyle;rounded=0;orthogonalLoop=1;jettySize=auto;html=1;entryX=0;entryY=0.5;entryDx=0;entryDy=0;endArrow=baseDash;endFill=0;" edge="1" parent="1" source="A2X96p4F6_HziaiNXx33-118" target="A2X96p4F6_HziaiNXx33-132">
          <mxGeometry relative="1" as="geometry" />
        </mxCell>
        <mxCell id="A2X96p4F6_HziaiNXx33-118" value="&lt;u&gt;Географска локација&lt;/u&gt;" style="ellipse;whiteSpace=wrap;html=1;align=center;" vertex="1" parent="1">
          <mxGeometry x="590" y="760" width="100" height="40" as="geometry" />
        </mxCell>
        <mxCell id="A2X96p4F6_HziaiNXx33-126" style="edgeStyle=orthogonalEdgeStyle;rounded=0;orthogonalLoop=1;jettySize=auto;html=1;entryX=0.75;entryY=0;entryDx=0;entryDy=0;endArrow=baseDash;endFill=0;" edge="1" parent="1" source="A2X96p4F6_HziaiNXx33-121" target="A2X96p4F6_HziaiNXx33-90">
          <mxGeometry relative="1" as="geometry" />
        </mxCell>
        <mxCell id="A2X96p4F6_HziaiNXx33-121" value="Име" style="ellipse;whiteSpace=wrap;html=1;align=center;" vertex="1" parent="1">
          <mxGeometry x="490" y="660" width="100" height="40" as="geometry" />
        </mxCell>
        <mxCell id="A2X96p4F6_HziaiNXx33-129" style="edgeStyle=orthogonalEdgeStyle;rounded=0;orthogonalLoop=1;jettySize=auto;html=1;entryX=1;entryY=0.25;entryDx=0;entryDy=0;endArrow=baseDash;endFill=0;" edge="1" parent="1" source="A2X96p4F6_HziaiNXx33-122" target="A2X96p4F6_HziaiNXx33-90">
          <mxGeometry relative="1" as="geometry" />
        </mxCell>
        <mxCell id="A2X96p4F6_HziaiNXx33-122" value="Адреса" style="ellipse;whiteSpace=wrap;html=1;align=center;" vertex="1" parent="1">
          <mxGeometry x="580" y="680" width="100" height="40" as="geometry" />
        </mxCell>
        <mxCell id="A2X96p4F6_HziaiNXx33-132" value="Ширина" style="ellipse;whiteSpace=wrap;html=1;align=center;" vertex="1" parent="1">
          <mxGeometry x="720" y="720" width="80" height="40" as="geometry" />
        </mxCell>
        <mxCell id="A2X96p4F6_HziaiNXx33-133" value="Должина" style="ellipse;whiteSpace=wrap;html=1;align=center;" vertex="1" parent="1">
          <mxGeometry x="720" y="790" width="80" height="40" as="geometry" />
        </mxCell>
        <mxCell id="A2X96p4F6_HziaiNXx33-135" style="edgeStyle=orthogonalEdgeStyle;rounded=0;orthogonalLoop=1;jettySize=auto;html=1;entryX=0.02;entryY=0.68;entryDx=0;entryDy=0;entryPerimeter=0;endArrow=baseDash;endFill=0;" edge="1" parent="1" source="A2X96p4F6_HziaiNXx33-118" target="A2X96p4F6_HziaiNXx33-133">
          <mxGeometry relative="1" as="geometry" />
        </mxCell>
        <mxCell id="A2X96p4F6_HziaiNXx33-141" style="edgeStyle=orthogonalEdgeStyle;rounded=0;orthogonalLoop=1;jettySize=auto;html=1;entryX=0;entryY=0.25;entryDx=0;entryDy=0;endArrow=baseDash;endFill=0;" edge="1" parent="1" source="A2X96p4F6_HziaiNXx33-138" target="A2X96p4F6_HziaiNXx33-89">
          <mxGeometry relative="1" as="geometry" />
        </mxCell>
        <mxCell id="A2X96p4F6_HziaiNXx33-138" value="&lt;u&gt;Име&lt;/u&gt;" style="ellipse;whiteSpace=wrap;html=1;align=center;" vertex="1" parent="1">
          <mxGeometry x="20" y="710" width="100" height="40" as="geometry" />
        </mxCell>
        <mxCell id="A2X96p4F6_HziaiNXx33-140" style="edgeStyle=orthogonalEdgeStyle;rounded=0;orthogonalLoop=1;jettySize=auto;html=1;entryX=0;entryY=0.75;entryDx=0;entryDy=0;endArrow=baseDash;endFill=0;" edge="1" parent="1" source="A2X96p4F6_HziaiNXx33-139" target="A2X96p4F6_HziaiNXx33-89">
          <mxGeometry relative="1" as="geometry" />
        </mxCell>
        <mxCell id="A2X96p4F6_HziaiNXx33-139" value="Држава" style="ellipse;whiteSpace=wrap;html=1;align=center;" vertex="1" parent="1">
          <mxGeometry x="20" y="780" width="100" height="40" as="geometry" />
        </mxCell>
        <mxCell id="A2X96p4F6_HziaiNXx33-143" value="" style="endArrow=none;html=1;rounded=0;entryX=0;entryY=0.5;entryDx=0;entryDy=0;" edge="1" parent="1" source="A2X96p4F6_HziaiNXx33-145" target="A2X96p4F6_HziaiNXx33-90">
          <mxGeometry relative="1" as="geometry">
            <mxPoint x="267.08" y="769.5" as="sourcePoint" />
            <mxPoint x="427.08" y="769.5" as="targetPoint" />
          </mxGeometry>
        </mxCell>
        <mxCell id="A2X96p4F6_HziaiNXx33-144" value="N" style="resizable=0;html=1;whiteSpace=wrap;align=right;verticalAlign=bottom;" connectable="0" vertex="1" parent="A2X96p4F6_HziaiNXx33-143">
          <mxGeometry x="1" relative="1" as="geometry" />
        </mxCell>
        <mxCell id="A2X96p4F6_HziaiNXx33-146" value="" style="endArrow=none;html=1;rounded=0;entryX=0;entryY=0.5;entryDx=0;entryDy=0;" edge="1" parent="1" target="A2X96p4F6_HziaiNXx33-145">
          <mxGeometry relative="1" as="geometry">
            <mxPoint x="267.08" y="769.5" as="sourcePoint" />
            <mxPoint x="445" y="770" as="targetPoint" />
          </mxGeometry>
        </mxCell>
        <mxCell id="A2X96p4F6_HziaiNXx33-145" value="Припаѓа" style="shape=rhombus;perimeter=rhombusPerimeter;whiteSpace=wrap;html=1;align=center;" vertex="1" parent="1">
          <mxGeometry x="315" y="750" width="95" height="50" as="geometry" />
        </mxCell>
        <mxCell id="A2X96p4F6_HziaiNXx33-148" value="1" style="resizable=0;html=1;whiteSpace=wrap;align=right;verticalAlign=bottom;" connectable="0" vertex="1" parent="1">
          <mxGeometry x="320.0018485608998" y="709.998675844794" as="geometry">
            <mxPoint x="-44" y="66" as="offset" />
          </mxGeometry>
        </mxCell>
        <mxCell id="A2X96p4F6_HziaiNXx33-155" style="edgeStyle=orthogonalEdgeStyle;rounded=0;orthogonalLoop=1;jettySize=auto;html=1;endArrow=baseDash;endFill=0;" edge="1" parent="1" source="A2X96p4F6_HziaiNXx33-149" target="A2X96p4F6_HziaiNXx33-156">
          <mxGeometry relative="1" as="geometry">
            <mxPoint x="217.07999999999993" y="960" as="targetPoint" />
          </mxGeometry>
        </mxCell>
        <mxCell id="A2X96p4F6_HziaiNXx33-149" value="Соседи" style="shape=rhombus;perimeter=rhombusPerimeter;whiteSpace=wrap;html=1;align=center;" vertex="1" parent="1">
          <mxGeometry x="167.08" y="860" width="100" height="40" as="geometry" />
        </mxCell>
        <mxCell id="A2X96p4F6_HziaiNXx33-151" value="" style="endArrow=none;html=1;rounded=0;" edge="1" parent="1">
          <mxGeometry relative="1" as="geometry">
            <mxPoint x="189.5" y="790" as="sourcePoint" />
            <mxPoint x="190" y="870" as="targetPoint" />
          </mxGeometry>
        </mxCell>
        <mxCell id="A2X96p4F6_HziaiNXx33-152" value="" style="endArrow=none;html=1;rounded=0;" edge="1" parent="1">
          <mxGeometry relative="1" as="geometry">
            <mxPoint x="249.5" y="790" as="sourcePoint" />
            <mxPoint x="250" y="870" as="targetPoint" />
          </mxGeometry>
        </mxCell>
        <mxCell id="A2X96p4F6_HziaiNXx33-153" value="M" style="text;html=1;strokeColor=none;fillColor=none;align=center;verticalAlign=middle;whiteSpace=wrap;rounded=0;" vertex="1" parent="1">
          <mxGeometry x="147.07999999999998" y="785" width="60" height="30" as="geometry" />
        </mxCell>
        <mxCell id="A2X96p4F6_HziaiNXx33-154" value="N" style="text;html=1;strokeColor=none;fillColor=none;align=center;verticalAlign=middle;whiteSpace=wrap;rounded=0;" vertex="1" parent="1">
          <mxGeometry x="230" y="785" width="60" height="30" as="geometry" />
        </mxCell>
        <mxCell id="A2X96p4F6_HziaiNXx33-156" value="Растојание" style="ellipse;whiteSpace=wrap;html=1;align=center;" vertex="1" parent="1">
          <mxGeometry x="167.07999999999993" y="940" width="100" height="40" as="geometry" />
        </mxCell>
        <mxCell id="A2X96p4F6_HziaiNXx33-158" value="" style="edgeStyle=orthogonalEdgeStyle;rounded=0;orthogonalLoop=1;jettySize=auto;html=1;shape=link;" edge="1" parent="1" target="A2X96p4F6_HziaiNXx33-157">
          <mxGeometry relative="1" as="geometry">
            <mxPoint x="430" y="590" as="targetPoint" />
            <mxPoint x="430" y="510" as="sourcePoint" />
          </mxGeometry>
        </mxCell>
        <mxCell id="A2X96p4F6_HziaiNXx33-157" value="Туристичко место" style="whiteSpace=wrap;html=1;align=center;" vertex="1" parent="1">
          <mxGeometry x="380" y="470" width="100" height="40" as="geometry" />
        </mxCell>
        <mxCell id="A2X96p4F6_HziaiNXx33-161" style="edgeStyle=orthogonalEdgeStyle;rounded=0;orthogonalLoop=1;jettySize=auto;html=1;entryX=0.25;entryY=0;entryDx=0;entryDy=0;endArrow=baseDash;endFill=0;" edge="1" parent="1" source="A2X96p4F6_HziaiNXx33-159" target="A2X96p4F6_HziaiNXx33-91">
          <mxGeometry relative="1" as="geometry" />
        </mxCell>
        <mxCell id="A2X96p4F6_HziaiNXx33-159" value="Име" style="ellipse;whiteSpace=wrap;html=1;align=center;" vertex="1" parent="1">
          <mxGeometry x="560" y="30" width="100" height="40" as="geometry" />
        </mxCell>
        <mxCell id="A2X96p4F6_HziaiNXx33-162" style="edgeStyle=orthogonalEdgeStyle;rounded=0;orthogonalLoop=1;jettySize=auto;html=1;entryX=0.75;entryY=0;entryDx=0;entryDy=0;endArrow=baseDash;endFill=0;" edge="1" parent="1" source="A2X96p4F6_HziaiNXx33-160" target="A2X96p4F6_HziaiNXx33-91">
          <mxGeometry relative="1" as="geometry" />
        </mxCell>
        <mxCell id="A2X96p4F6_HziaiNXx33-160" value="Локација" style="ellipse;whiteSpace=wrap;html=1;align=center;" vertex="1" parent="1">
          <mxGeometry x="690" y="30" width="100" height="40" as="geometry" />
        </mxCell>
        <mxCell id="A2X96p4F6_HziaiNXx33-163" value="Патување" style="whiteSpace=wrap;html=1;align=center;" vertex="1" parent="1">
          <mxGeometry x="650" y="350" width="100" height="40" as="geometry" />
        </mxCell>
        <mxCell id="A2X96p4F6_HziaiNXx33-168" value="" style="endArrow=none;html=1;rounded=0;entryX=0.388;entryY=0.02;entryDx=0;entryDy=0;entryPerimeter=0;" edge="1" parent="1" target="A2X96p4F6_HziaiNXx33-163">
          <mxGeometry relative="1" as="geometry">
            <mxPoint x="689.1346153846157" y="345" as="sourcePoint" />
            <mxPoint x="690" y="333.25" as="targetPoint" />
          </mxGeometry>
        </mxCell>
        <mxCell id="A2X96p4F6_HziaiNXx33-171" style="edgeStyle=orthogonalEdgeStyle;rounded=0;orthogonalLoop=1;jettySize=auto;html=1;entryX=0.5;entryY=1;entryDx=0;entryDy=0;endArrow=baseDash;endFill=0;" edge="1" parent="1" source="A2X96p4F6_HziaiNXx33-169" target="A2X96p4F6_HziaiNXx33-91">
          <mxGeometry relative="1" as="geometry" />
        </mxCell>
        <mxCell id="A2X96p4F6_HziaiNXx33-169" value="Организира" style="shape=rhombus;perimeter=rhombusPerimeter;whiteSpace=wrap;html=1;align=center;" vertex="1" parent="1">
          <mxGeometry x="630" y="220" width="120" height="60" as="geometry" />
        </mxCell>
        <mxCell id="A2X96p4F6_HziaiNXx33-174" value="" style="endArrow=none;html=1;rounded=0;" edge="1" parent="1" source="A2X96p4F6_HziaiNXx33-169">
          <mxGeometry relative="1" as="geometry">
            <mxPoint x="690" y="280" as="sourcePoint" />
            <mxPoint x="690" y="350" as="targetPoint" />
          </mxGeometry>
        </mxCell>
        <mxCell id="A2X96p4F6_HziaiNXx33-175" value="N" style="text;html=1;strokeColor=none;fillColor=none;align=center;verticalAlign=middle;whiteSpace=wrap;rounded=0;" vertex="1" parent="1">
          <mxGeometry x="680" y="325" width="60" height="30" as="geometry" />
        </mxCell>
        <mxCell id="A2X96p4F6_HziaiNXx33-179" value="1" style="text;html=1;strokeColor=none;fillColor=none;align=center;verticalAlign=middle;whiteSpace=wrap;rounded=0;" vertex="1" parent="1">
          <mxGeometry x="680" y="150" width="60" height="30" as="geometry" />
        </mxCell>
        <mxCell id="A2X96p4F6_HziaiNXx33-182" value="Вклучува" style="shape=rhombus;perimeter=rhombusPerimeter;whiteSpace=wrap;html=1;align=center;" vertex="1" parent="1">
          <mxGeometry x="500" y="390" width="110" height="50" as="geometry" />
        </mxCell>
        <mxCell id="A2X96p4F6_HziaiNXx33-184" value="" style="endArrow=none;html=1;rounded=0;entryX=0;entryY=0.5;entryDx=0;entryDy=0;" edge="1" parent="1" target="A2X96p4F6_HziaiNXx33-163">
          <mxGeometry relative="1" as="geometry">
            <mxPoint x="646" y="380" as="sourcePoint" />
            <mxPoint x="620" y="335" as="targetPoint" />
            <Array as="points" />
          </mxGeometry>
        </mxCell>
        <mxCell id="A2X96p4F6_HziaiNXx33-186" value="" style="endArrow=none;html=1;rounded=0;entryX=0;entryY=0.5;entryDx=0;entryDy=0;" edge="1" parent="1">
          <mxGeometry relative="1" as="geometry">
            <mxPoint x="480" y="470" as="sourcePoint" />
            <mxPoint x="540" y="435" as="targetPoint" />
            <Array as="points" />
          </mxGeometry>
        </mxCell>
        <mxCell id="A2X96p4F6_HziaiNXx33-187" value="M" style="text;html=1;strokeColor=none;fillColor=none;align=center;verticalAlign=middle;whiteSpace=wrap;rounded=0;" vertex="1" parent="1">
          <mxGeometry x="590" y="355" width="60" height="30" as="geometry" />
        </mxCell>
        <mxCell id="A2X96p4F6_HziaiNXx33-192" value="" style="endArrow=none;html=1;rounded=0;entryX=0;entryY=0.5;entryDx=0;entryDy=0;" edge="1" parent="1">
          <mxGeometry relative="1" as="geometry">
            <mxPoint x="590" y="405" as="sourcePoint" />
            <mxPoint x="650" y="370" as="targetPoint" />
            <Array as="points" />
          </mxGeometry>
        </mxCell>
        <mxCell id="A2X96p4F6_HziaiNXx33-193" value="N" style="text;html=1;strokeColor=none;fillColor=none;align=center;verticalAlign=middle;whiteSpace=wrap;rounded=0;" vertex="1" parent="1">
          <mxGeometry x="445" y="440" width="60" height="30" as="geometry" />
        </mxCell>
        <mxCell id="A2X96p4F6_HziaiNXx33-202" style="edgeStyle=orthogonalEdgeStyle;rounded=0;orthogonalLoop=1;jettySize=auto;html=1;entryX=1;entryY=0.75;entryDx=0;entryDy=0;endArrow=baseDash;endFill=0;" edge="1" parent="1" source="A2X96p4F6_HziaiNXx33-196" target="A2X96p4F6_HziaiNXx33-163">
          <mxGeometry relative="1" as="geometry" />
        </mxCell>
        <mxCell id="A2X96p4F6_HziaiNXx33-196" value="Краен датум" style="ellipse;whiteSpace=wrap;html=1;align=center;" vertex="1" parent="1">
          <mxGeometry x="860" y="310" width="100" height="40" as="geometry" />
        </mxCell>
        <mxCell id="A2X96p4F6_HziaiNXx33-197" value="Почетен датум" style="ellipse;whiteSpace=wrap;html=1;align=center;" vertex="1" parent="1">
          <mxGeometry x="780" y="250" width="100" height="40" as="geometry" />
        </mxCell>
        <mxCell id="A2X96p4F6_HziaiNXx33-198" value="Основна цена" style="ellipse;whiteSpace=wrap;html=1;align=center;" vertex="1" parent="1">
          <mxGeometry x="870" y="395" width="100" height="40" as="geometry" />
        </mxCell>
        <mxCell id="A2X96p4F6_HziaiNXx33-201" style="edgeStyle=orthogonalEdgeStyle;rounded=0;orthogonalLoop=1;jettySize=auto;html=1;entryX=0.852;entryY=0;entryDx=0;entryDy=0;entryPerimeter=0;endArrow=baseDash;endFill=0;" edge="1" parent="1" source="A2X96p4F6_HziaiNXx33-197" target="A2X96p4F6_HziaiNXx33-163">
          <mxGeometry relative="1" as="geometry" />
        </mxCell>
        <mxCell id="A2X96p4F6_HziaiNXx33-203" style="edgeStyle=orthogonalEdgeStyle;rounded=0;orthogonalLoop=1;jettySize=auto;html=1;entryX=0.828;entryY=1.06;entryDx=0;entryDy=0;entryPerimeter=0;endArrow=baseDash;endFill=0;" edge="1" parent="1">
          <mxGeometry relative="1" as="geometry">
            <mxPoint x="870" y="412.6" as="sourcePoint" />
            <mxPoint x="732.8000000000002" y="390" as="targetPoint" />
          </mxGeometry>
        </mxCell>
        <mxCell id="A2X96p4F6_HziaiNXx33-204" value="Присуство" style="shape=rhombus;perimeter=rhombusPerimeter;whiteSpace=wrap;html=1;align=center;" vertex="1" parent="1">
          <mxGeometry x="490" y="195" width="110" height="50" as="geometry" />
        </mxCell>
        <mxCell id="A2X96p4F6_HziaiNXx33-205" value="" style="endArrow=none;html=1;rounded=0;entryX=0.095;entryY=0.356;entryDx=0;entryDy=0;entryPerimeter=0;" edge="1" parent="1">
          <mxGeometry relative="1" as="geometry">
            <mxPoint x="219.54999999999998" y="160" as="sourcePoint" />
            <mxPoint x="499.99999999999983" y="212.79999999999995" as="targetPoint" />
          </mxGeometry>
        </mxCell>
        <mxCell id="A2X96p4F6_HziaiNXx33-207" value="" style="endArrow=none;html=1;rounded=0;entryX=0.507;entryY=1.233;entryDx=0;entryDy=0;entryPerimeter=0;" edge="1" parent="1" target="A2X96p4F6_HziaiNXx33-209">
          <mxGeometry relative="1" as="geometry">
            <mxPoint x="550" y="242" as="sourcePoint" />
            <mxPoint x="735" y="320" as="targetPoint" />
            <Array as="points">
              <mxPoint x="640" y="280" />
            </Array>
          </mxGeometry>
        </mxCell>
        <mxCell id="A2X96p4F6_HziaiNXx33-208" value="М" style="resizable=0;html=1;whiteSpace=wrap;align=right;verticalAlign=bottom;" connectable="0" vertex="1" parent="1">
          <mxGeometry x="239.54684509312497" y="210.003574632648" as="geometry">
            <mxPoint x="15" y="-34" as="offset" />
          </mxGeometry>
        </mxCell>
        <mxCell id="A2X96p4F6_HziaiNXx33-209" value="N" style="text;html=1;strokeColor=none;fillColor=none;align=center;verticalAlign=middle;whiteSpace=wrap;rounded=0;" vertex="1" parent="1">
          <mxGeometry x="640" y="325" width="60" height="30" as="geometry" />
        </mxCell>
        <mxCell id="A2X96p4F6_HziaiNXx33-211" value="" style="endArrow=none;html=1;rounded=0;entryX=0;entryY=0;entryDx=0;entryDy=0;" edge="1" parent="1" target="A2X96p4F6_HziaiNXx33-210">
          <mxGeometry relative="1" as="geometry">
            <mxPoint x="214.6" y="160" as="sourcePoint" />
            <mxPoint x="415" y="274" as="targetPoint" />
          </mxGeometry>
        </mxCell>
        <mxCell id="A2X96p4F6_HziaiNXx33-233" style="edgeStyle=orthogonalEdgeStyle;rounded=0;orthogonalLoop=1;jettySize=auto;html=1;entryX=0.5;entryY=1;entryDx=0;entryDy=0;endArrow=baseDash;endFill=0;" edge="1" parent="1" source="A2X96p4F6_HziaiNXx33-210" target="A2X96p4F6_HziaiNXx33-226">
          <mxGeometry relative="1" as="geometry" />
        </mxCell>
        <mxCell id="A2X96p4F6_HziaiNXx33-234" style="edgeStyle=orthogonalEdgeStyle;rounded=0;orthogonalLoop=1;jettySize=auto;html=1;entryX=0.5;entryY=0;entryDx=0;entryDy=0;endArrow=baseDash;endFill=0;" edge="1" parent="1" source="A2X96p4F6_HziaiNXx33-210" target="A2X96p4F6_HziaiNXx33-229">
          <mxGeometry relative="1" as="geometry" />
        </mxCell>
        <mxCell id="A2X96p4F6_HziaiNXx33-210" value="Факултативни посети" style="shape=rhombus;perimeter=rhombusPerimeter;whiteSpace=wrap;html=1;align=center;" vertex="1" parent="1">
          <mxGeometry x="400" y="220" width="130" height="80" as="geometry" />
        </mxCell>
        <mxCell id="A2X96p4F6_HziaiNXx33-214" value="" style="endArrow=none;html=1;rounded=0;entryX=1;entryY=0;entryDx=0;entryDy=0;" edge="1" parent="1" source="A2X96p4F6_HziaiNXx33-210" target="A2X96p4F6_HziaiNXx33-187">
          <mxGeometry relative="1" as="geometry">
            <mxPoint x="500" y="290" as="sourcePoint" />
            <mxPoint x="655" y="340.5" as="targetPoint" />
          </mxGeometry>
        </mxCell>
        <mxCell id="A2X96p4F6_HziaiNXx33-216" value="" style="endArrow=none;html=1;rounded=0;entryX=0.416;entryY=0.02;entryDx=0;entryDy=0;entryPerimeter=0;exitX=0.5;exitY=1;exitDx=0;exitDy=0;" edge="1" parent="1" source="A2X96p4F6_HziaiNXx33-210" target="A2X96p4F6_HziaiNXx33-157">
          <mxGeometry relative="1" as="geometry">
            <mxPoint x="420" y="339" as="sourcePoint" />
            <mxPoint x="580" y="339" as="targetPoint" />
          </mxGeometry>
        </mxCell>
        <mxCell id="A2X96p4F6_HziaiNXx33-218" value="М" style="text;html=1;strokeColor=none;fillColor=none;align=center;verticalAlign=middle;whiteSpace=wrap;rounded=0;" vertex="1" parent="1">
          <mxGeometry x="460" y="300" width="60" height="30" as="geometry" />
        </mxCell>
        <mxCell id="A2X96p4F6_HziaiNXx33-219" value="N" style="text;html=1;strokeColor=none;fillColor=none;align=center;verticalAlign=middle;whiteSpace=wrap;rounded=0;" vertex="1" parent="1">
          <mxGeometry x="395" y="215" width="60" height="30" as="geometry" />
        </mxCell>
        <mxCell id="A2X96p4F6_HziaiNXx33-221" value="P" style="text;html=1;strokeColor=none;fillColor=none;align=center;verticalAlign=middle;whiteSpace=wrap;rounded=0;" vertex="1" parent="1">
          <mxGeometry x="520" y="270" width="60" height="30" as="geometry" />
        </mxCell>
        <mxCell id="A2X96p4F6_HziaiNXx33-226" value="Датум" style="ellipse;whiteSpace=wrap;html=1;align=center;" vertex="1" parent="1">
          <mxGeometry x="350" y="150" width="70" height="20" as="geometry" />
        </mxCell>
        <mxCell id="A2X96p4F6_HziaiNXx33-229" value="Цена" style="ellipse;whiteSpace=wrap;html=1;align=center;" vertex="1" parent="1">
          <mxGeometry x="485" y="355" width="60" height="25" as="geometry" />
        </mxCell>
      </root>
    </mxGraphModel>
  </diagram>
</mxfile>
